<?xml version="1.0" encoding="utf-8"?>
<!-- Uploaded to: SVG Repo, www.svgrepo.com, Generator: SVG Repo Mixer Tools -->
<svg width="800px" height="800px" viewBox="0 -297 1618 1618" class="icon"  version="1.1" xmlns="http://www.w3.org/2000/svg"><path d="M1495.104759 90.099858C1495.104759 40.373123 1454.731636 0 1405.004901 0H203.686957C153.960221 0 113.587099 40.373123 113.587099 90.099858v810.890624h1381.51766V90.099858z" fill="#4762AF" /><path d="M1435.040885 108.345676c0-23.025834-18.695083-41.71687-41.720917-41.71687H221.932775c-23.025834 0-41.71687 18.691036-41.71687 41.71687v792.644806h1254.82498V108.345676z" fill="#FFFFFF" /><path d="M927.76019 66.628806h-240.263589v18.780079a18.788174 18.788174 0 0 0 18.776031 18.776032h202.707479a18.788174 18.788174 0 0 0 18.780079-18.776032v-18.780079zM1615.236553 906.99687c0-3.314846-2.691542-6.006387-6.006387-6.006388H6.022577c-3.314846 0-6.006387 2.691542-6.006387 6.006388v54.057486c0 33.152506 26.915415 60.067921 60.067921 60.067921h1495.088569c33.148458 0 60.063874-26.915415 60.063873-60.067921v-54.057486z" fill="#4762AF" /><path d="M987.824063 888.411067h-360.395383c0 31.14498 25.2843 56.425233 56.425233 56.425233h247.544917c31.140933 0 56.425233-25.280253 56.425233-56.425233z" fill="#FFFFFF" /><path d="M867.234909 77.55687m-10.928063 0a10.928063 10.928063 0 1 0 21.856126 0 10.928063 10.928063 0 1 0-21.856126 0Z" fill="#000000" /></svg>